<svg xmlns="http://www.w3.org/2000/svg" xml:space="preserve" width="200" height="200" stroke="#000" stroke-width="8.7" viewBox="-51.2 -51.2 614.4 614.4"><path fill="#fbff12" stroke="none" d="M256 458c57 4 111-12 158-44 57-41 133-88 128-158s-98-89-149-137C345 73 321-1 256-14 183-28 107 1 51 51-6 104-56 179-41 256c13 72 97 99 157 140 44 30 87 59 140 62"/><path d="m499 85-12-16a277 277 0 0 0-10-49c-1-4-3-7-6-9l-5-4-7-2c-4 0-7 1-10 3-5 2-9 6-13 9-8 8-15 18-19 23h-65a183 183 0 0 0-24-27l-8-5c-3-2-6-3-10-3l-7 2c-4 2-6 5-8 7l-7 17c-4 15-6 31-6 38a102 102 0 0 0-25 64c0 11 2 21 6 33l3 6c-8 9-18 17-30 26l-51 37c-18 14-39 30-61 51-33 31-48 74-48 114l1 13a77 77 0 0 1-6-31c0-27 12-56 25-84l18-41c5-14 9-28 9-42 0-11-3-23-10-34-6-8-14-15-22-19a63 63 0 0 0-70 12 71 71 0 0 0-21 49 14 14 0 0 0 28 1c1-13 5-23 12-30 7-6 16-10 24-10 5 0 9 1 14 3 4 2 8 6 12 11 3 5 5 10 5 17 0 9-3 19-7 32-7 18-18 39-28 62a192 192 0 0 0-16 87c1 12 4 23 9 33a66 66 0 0 0 37 33l3 5c10 19 27 34 48 40h299l1-8 1-13c0-8-1-20-8-31a38 38 0 0 0-27-18 2365 2365 0 0 1 26-180 245 245 0 0 1 10-34c7-2 13-4 20-8a93 93 0 0 0 36-130zm-11 74c-7 20-19 32-34 40-15 7-32 10-47 12l1 19 13-2v2c-6 15-10 36-14 59l-1 9c-22 21-33 52-11 80-5 38-7 67-7 67l-1 10h10c6 0 11 1 14 3 5 3 8 7 10 12l2 16v2h-46a36 36 0 0 0-4-23 53 53 0 0 0-16-19l3-64h-19l-3 75 5 3 9 7 5 7 2 8-1 6H246c57-91 3-200-45-241l47-34c10-8 20-15 28-24 9 12 20 21 32 27l8-17c-6-3-12-7-17-12 69-6 84-80 85-128h44l3-4a165 165 0 0 1 23-28l4-2v-1l4 9a163 163 0 0 1 6 37l1 3v4l3 3 11 15a74 74 0 0 1 6 64z" style="fill:#ff206e"/></svg>