<svg xmlns="http://www.w3.org/2000/svg" xml:space="preserve" width="64" height="64" viewBox="-30.1 -30.1 361.6 361.6"><path fill="#41ead4" d="M150.7 276.6c17.8-1.5 35.4-2.5 52.4-8 18-6 33.8-16 50.2-25.6 20.9-12.3 53.1-16.2 60.2-39.4 7.1-23.4-20.6-43.7-27.7-67.2-5.8-19 1.3-41.8-10.2-57.9-11.6-16.2-37.2-15-51.8-28.5C206.8 34 205 3.5 184-6.8c-20-9.8-44.2 0-65.8 5.2a210.9 210.9 0 0 0-60.1 25 191.7 191.7 0 0 0-53 43.3C-10 86-26.3 107.3-27.6 132c-1.3 24.6 17.2 45.3 26 68.3 8.3 22 6.3 50.6 24.7 65.4 18.8 15.3 46.8 10.1 71 12.2 19 1.6 37.6.4 56.7-1.2"/><path d="M75.5 92.7h150.3a7.2 7.2 0 0 0 0-14.4H75.5a7.2 7.2 0 0 0 0 14.4zm0-37.4h150.3a7.2 7.2 0 0 0 0-14.3H75.5a7.2 7.2 0 0 0 0 14.3z"/><path d="M254.4 0H46.9c-4 0-7.2 3.2-7.2 7.2v287c0 3.9 3.3 7.1 7.2 7.1h207.5a7 7 0 0 0 7.1-7.2V7.1c0-3.9-3.2-7.1-7.1-7.1zm-7.2 287H123.1l25.3-25.4a7.2 7.2 0 0 0-10.2-10.1L102.8 287H64.2l34.6-34.7a7.2 7.2 0 0 0-10-10.1L54 276.8v-39.6L89.4 202a7.2 7.2 0 0 0-10.1-10.2L54 217V14.3h193.1V287z"/><path d="M75.5 130h150.3a7.2 7.2 0 0 0 0-14.3H75.5a7.2 7.2 0 0 0 0 14.3zm119.4 46.6a30.7 30.7 0 1 0 0 61.4 30.7 30.7 0 0 0 0-61.4zm0 47.2a16.5 16.5 0 1 1 0-33 16.5 16.5 0 0 1 0 33z"/></svg>