<svg xmlns="http://www.w3.org/2000/svg" xml:space="preserve" width="64" height="64" viewBox="-30.1 -30.1 361.6 361.6"><path fill="#fbff12" d="M150.7 313.1c28-1.2 54-12.6 78.8-26 25.3-13.6 61.2-24.3 66.5-52.6 5.7-31.1-40.9-52.1-41.3-83.8-.5-31 42.9-51.9 39-82.6-3.9-29.2-33.3-48.7-58.1-64.6-25.5-16.2-56-35.3-85-26.8-29.9 8.8-33.3 53.8-60.3 69.4C63.4 61.7 11.6 35 .4 64-11.8 95.5 37 119.4 50 150.6c7 17 6.4 35 8.7 53.2 3.8 30.6-10.6 66.8 9.2 90.3 18.6 22 54 20.2 82.9 19"/><path d="M294 57.5H7.3A7.4 7.4 0 0 0 0 64.8v171.8c0 4 3.2 7.2 7.2 7.2h287c3.9 0 7.1-3.2 7.1-7.2V64.8c0-4-3.4-7.3-7.3-7.3zM271.5 72l-120.9 85L29.8 72h241.7zM287 229.4H80.2l25.3-25.3A7.2 7.2 0 0 0 95.3 194L60 229.4H25l34-34a7.2 7.2 0 0 0-10.1-10.2l-34.5 34.5v-36l35.8-35.8a7.2 7.2 0 0 0-10.2-10l-25.6 25.5V78.5l132.2 93a7.2 7.2 0 0 0 8.3 0l132.2-93v151z"/></svg>