<svg xmlns="http://www.w3.org/2000/svg" width="64" height="64" fill="none" viewBox="-2.4 -2.4 28.8 28.8"><path fill="#41ead4" d="M12 23.3c1.6-.5 2.8-1.6 4.2-2.6 1.1-.9 1.9-2.1 3-3 1.8-1.1 4.3-1.1 5.5-2.8 1.3-1.7 2-4.1 1.2-6-.8-2-3.5-2.5-5.2-3.8-1.4-1-2.5-2.3-4-2.9-1.5-.6-3.2-.1-4.7-.5C9.9 1 8.1-1 6-.6c-2.1.4-3.6 2.3-4.8 4C0 5.1-1.2 7.1-.8 9.1c.3 2 2.8 3 3.9 5 .7 1.2.7 2.7 1.1 4 .7 2.1.2 4.9 2 6 1.6 1.1 4-.1 5.8-.8"/><path stroke="#000" stroke-linejoin="round" d="M22 3.5v17a1.5 1.5 0 0 1-1.5 1.5h-17A1.5 1.5 0 0 1 2 20.5v-17A1.5 1.5 0 0 1 3.5 2h17A1.5 1.5 0 0 1 22 3.5ZM7.9 9.6h-3v9.5h3V9.6ZM8 6.4a1.7 1.7 0 0 0-1.6-1.7 1.7 1.7 0 0 0 0 3.4A1.7 1.7 0 0 0 8 6.5Zm11 7c0-2.9-1.8-4-3.6-4a3.4 3.4 0 0 0-3 1.5V9.6H9.5v9.5h3v-5a2 2 0 0 1 1.8-2.2c1 0 1.7.6 1.7 2.1v5h3v-5.7Z"/></svg>